<?xml version="1.0" encoding="UTF-8"?>
<svg id="Layer_1" data-name="Layer 1" xmlns="http://www.w3.org/2000/svg" viewBox="0 0 16 16">
  <defs>
    <style>
      .cls-1 {
        fill: #58595b;
      }

      .cls-1, .cls-2 {
        stroke-width: 0px;
      }

      .cls-2 {
        fill: #c97495;
      }
    </style>
  </defs>
  <path class="cls-1" d="M12,4.81v2.19h1v-2.6c-1.33-1.33-2.07-2.07-3.4-3.4H1.5l-.5.5v13l.5.5h4.5v-1h-4V2h7.19l1.4,1.41,1.41,1.4Z"/>
  <polygon class="cls-2" points="8.04 8.29 5.54 10.79 5.54 11.5 8.04 14 8.75 13.29 6.6 11.15 8.75 9 8.04 8.29"/>
  <polygon class="cls-2" points="12.5 8.29 11.79 9 13.94 11.15 11.79 13.29 12.5 14 15 11.5 15 10.79 12.5 8.29"/>
  <rect class="cls-2" x="9.65" y="10.65" width="1.25" height="1"/>
</svg>