<?xml version="1.0" encoding="UTF-8"?>
<svg id="Layer_1" data-name="Layer 1" xmlns="http://www.w3.org/2000/svg" viewBox="0 0 16 16">
  <defs>
    <style>
      .cls-1 {
        fill: #7b6999;
      }

      .cls-1, .cls-2 {
        stroke-width: 0px;
      }

      .cls-2 {
        fill: #58595b;
      }
    </style>
  </defs>
  <path class="cls-2" d="M2,2h7.19l1.4,1.41,1.41,1.4v2.19h1v-2.6c-1.33-1.33-2.07-2.07-3.4-3.4H1.5l-.5.5v13l.5.5h2.5v-1h-2V2Z"/>
  <polygon class="cls-1" points="12 11.29 9 8.29 8.29 9 10.94 11.65 8.29 14.29 9 15 12 12 12 11.29"/>
  <polygon class="cls-1" points="12 8.29 11.29 9 13.94 11.65 11.29 14.29 12 15 15 12 15 11.29 12 8.29"/>
  <path class="cls-1" d="M9,11.29l-3-3-.85.35v6l.85.35,3-3v-.71ZM6.15,13.44v-3.59l1.79,1.79-1.79,1.79Z"/>
</svg>