<?xml version="1.0" encoding="UTF-8"?>
<svg id="Layer_1" data-name="Layer 1" xmlns="http://www.w3.org/2000/svg" viewBox="0 0 16 16">
  <defs>
    <style>
      .cls-1 {
        fill: #a4cd7d;
      }

      .cls-1, .cls-2, .cls-3 {
        stroke-width: 0px;
      }

      .cls-2 {
        fill: #fde321;
      }

      .cls-3 {
        fill: #fff;
      }
    </style>
  </defs>
  <path class="cls-3" d="M2,2h7.19l1.4,1.41,1.41,1.4v3.19h1v-3.6c-1.33-1.33-2.07-2.07-3.4-3.4H1.5l-.5.5v13l.5.5h7.5v-1H2V2Z"/>
  <path class="cls-2" d="M6.23,3.09l-.55.94c-.1-.02-.19-.02-.27-.02-.08,0-.17,0-.26.03l-.55-.95-.87.5.55.95c-.11.13-.2.29-.27.46h-1.09s0,1,0,1h1.09c.03.09.07.17.12.25.05.09.1.16.16.23l-.54.94.86.49.55-.94c.19.03.37.03.54,0l.55.95.87-.5-.55-.95c.06-.08.12-.15.16-.23.04-.07.08-.15.12-.24h1.09s0-1,0-1h-1.09c-.03-.08-.07-.17-.12-.25-.05-.08-.1-.16-.16-.23l.54-.94-.86-.49ZM6.14,5.69c-.05.2-.17.35-.35.46s-.37.13-.57.08c-.2-.05-.35-.17-.46-.35s-.13-.37-.08-.57c.05-.2.17-.35.35-.46s.37-.13.57-.08c.2.05.35.17.46.35s.13.37.08.57Z"/>
  <path class="cls-1" d="M11.85,9.71l-.58.82,1.87,1.33h-2.17c-1.67,0-3.02-1.36-3.02-3.02h-1c0,2.22,1.8,4.02,4.02,4.02h2.17l-1.87,1.33.58.82,3.15-2.24v-.82l-3.15-2.24Z"/>
</svg>