<?xml version="1.0" encoding="UTF-8"?>
<svg id="Layer_1" data-name="Layer 1" xmlns="http://www.w3.org/2000/svg" viewBox="0 0 16 16">
  <defs>
    <style>
      .cls-1 {
        fill: #3fc5e8;
      }

      .cls-1, .cls-2, .cls-3, .cls-4 {
        stroke-width: 0px;
      }

      .cls-2 {
        fill: #a4cd7d;
      }

      .cls-3 {
        fill: #fff;
      }

      .cls-4 {
        fill: #fcc955;
      }
    </style>
  </defs>
  <path class="cls-3" d="M2,2h7.19l1.4,1.41,1.41,1.4v1.19h1v-1.6c-1.33-1.33-2.07-2.07-3.4-3.4H1.5l-.5.5v13l.5.5h5.5v-1H2V2Z"/>
  <path class="cls-2" d="M8.5,12l-.5.5v2l.5.5h3l.5-.5v-2l-.5-.5h-3ZM11,14h-2v-1h2v1Z"/>
  <path class="cls-1" d="M14.5,8h-3l-.5.5v2l.5.5h3l.5-.5v-2l-.5-.5ZM14,10h-2v-1h2v1Z"/>
  <path class="cls-4" d="M6,7.5v2l.5.5h3l.5-.5v-2l-.5-.5h-3l-.5.5ZM7,8h2v1h-2v-1Z"/>
</svg>